<?xml version="1.0" encoding="UTF-8" standalone="no"?><!DOCTYPE svg PUBLIC "-//W3C//DTD SVG 1.1//EN" "http://www.w3.org/Graphics/SVG/1.1/DTD/svg11.dtd"><svg width="100%" height="100%" viewBox="0 0 32 32" version="1.1" xmlns="http://www.w3.org/2000/svg" xmlns:xlink="http://www.w3.org/1999/xlink" xml:space="preserve" xmlns:serif="http://www.serif.com/" style="fill-rule:evenodd;clip-rule:evenodd;stroke-linejoin:round;stroke-miterlimit:1.41421;">
<metadata>
<rdf:RDF xmlns:cc="http://web.resource.org/cc/"
         xmlns:rdf="http://www.w3.org/1999/02/22-rdf-syntax-ns#"
         xmlns:dc = "http://purl.org/dc/elements/1.1/"
         >

     <rdf:Description rdf:about="">
       <dc:title>Mutant Standard emoji VIP 2018-04</dc:title>
     </rdf:Description>

    <cc:work rdf:about="">
        <cc:license rdf:resource="http://creativecommons.org/licenses/by-nc-sa/4.0/"/>
        <cc:attributionName>Dzuk</cc:attributionName>
        <cc:attributionURL>http://mutant.tech/</cc:attributionURL>
    </cc:work>

</rdf:RDF>
</metadata>
<rect id="purple_sunset" x="0" y="0" width="32" height="32" style="fill:none;"/><g id="outline"><rect x="0" y="0" width="32" height="32"/></g><g id="emoji"><rect x="2" y="2" width="28" height="28" style="fill:#871cd8;"/><clipPath id="_clip1"><rect x="2" y="2" width="28" height="28"/></clipPath><g clip-path="url(#_clip1)"><rect x="2" y="8" width="28" height="15" style="fill:#b52bc7;"/><rect x="2" y="14" width="28" height="16" style="fill:#e34c7e;"/><rect x="2" y="19" width="28" height="2" style="fill:#ff6004;"/><circle cx="16" cy="20" r="5" style="fill:#ffa90a;"/><rect x="2" y="20" width="28" height="10" style="fill:#531a93;"/><g><path d="M21,21.5c0,-0.133 -0.053,-0.26 -0.146,-0.354c-0.094,-0.093 -0.221,-0.146 -0.354,-0.146c-1.707,0 -7.293,0 -9,0c-0.133,0 -0.26,0.053 -0.354,0.146c-0.093,0.094 -0.146,0.221 -0.146,0.354c0,0.133 0.053,0.26 0.146,0.354c0.094,0.093 0.221,0.146 0.354,0.146c1.707,0 7.293,0 9,0c0.133,0 0.26,-0.053 0.354,-0.146c0.093,-0.094 0.146,-0.221 0.146,-0.354c0,0 0,0 0,0Z" style="fill:#ff7104;"/><path d="M20,22.5c0,-0.276 -0.224,-0.5 -0.5,-0.5c-1.436,0 -5.564,0 -7,0c-0.276,0 -0.5,0.224 -0.5,0.5c0,0.276 0.224,0.5 0.5,0.5c1.436,0 5.564,0 7,0c0.276,0 0.5,-0.224 0.5,-0.5c0,0 0,0 0,0Z" style="fill:#ff7104;"/><rect x="12.5" y="21.445" width="7" height="0.934" style="fill:#ff7104;"/><path d="M19,24.5c0,-0.133 -0.053,-0.26 -0.146,-0.354c-0.094,-0.093 -0.221,-0.146 -0.354,-0.146c-1.13,0 -3.87,0 -5,0c-0.133,0 -0.26,0.053 -0.354,0.146c-0.093,0.094 -0.146,0.221 -0.146,0.354c0,0.133 0.053,0.26 0.146,0.354c0.094,0.093 0.221,0.146 0.354,0.146c1.13,0 3.87,0 5,0c0.133,0 0.26,-0.053 0.354,-0.146c0.093,-0.094 0.146,-0.221 0.146,-0.354c0,0 0,0 0,0Z" style="fill:#ff7104;"/><path d="M18,27.5c0,-0.133 -0.053,-0.26 -0.146,-0.354c-0.094,-0.093 -0.221,-0.146 -0.354,-0.146c-0.769,0 -2.231,0 -3,0c-0.133,0 -0.26,0.053 -0.354,0.146c-0.093,0.094 -0.146,0.221 -0.146,0.354c0,0.133 0.053,0.26 0.146,0.354c0.094,0.093 0.221,0.146 0.354,0.146c0.769,0 2.231,0 3,0c0.133,0 0.26,-0.053 0.354,-0.146c0.093,-0.094 0.146,-0.221 0.146,-0.354c0,0 0,0 0,0Z" style="fill:#ff7104;"/></g><path d="M10,13c0,0 1.944,-1.944 3.121,-3.121c0.563,-0.563 1.326,-0.879 2.122,-0.879c1.48,0 3.757,0 3.757,0c0,0 1.236,-1.236 2.121,-2.121c0.563,-0.563 1.326,-0.879 2.122,-0.879c2.469,0 7.757,0 7.757,0l0,7l-21,0" style="fill:#52048e;"/><clipPath id="_clip2"><path d="M10,13c0,0 1.944,-1.944 3.121,-3.121c0.563,-0.563 1.326,-0.879 2.122,-0.879c1.48,0 3.757,0 3.757,0c0,0 1.236,-1.236 2.121,-2.121c0.563,-0.563 1.326,-0.879 2.122,-0.879c2.469,0 7.757,0 7.757,0l0,7l-21,0"/></clipPath><g clip-path="url(#_clip2)"><path d="M10,13c0,0 2.239,-1.119 3.367,-1.683c0.416,-0.209 0.875,-0.317 1.341,-0.317c1.588,0 5.292,0 5.292,0c0,0 1.697,-0.566 2.538,-0.846c0.306,-0.102 0.626,-0.154 0.949,-0.154c1.735,0 7.513,0 7.513,0l0,3l-21,0Z" style="fill:#dc6114;"/></g><path d="M21,7c0,0 -1.236,-1.236 -2.121,-2.121c-0.563,-0.563 -1.326,-0.879 -2.122,-0.879c-1.757,0 -4.757,0 -4.757,0c0,0 -3.824,-1.912 -5.367,-2.683c-0.416,-0.209 -0.875,-0.317 -1.341,-0.317c-1.957,0 -7.292,0 -7.292,0l0,4l8,0c0,0 2.55,1.275 3.578,1.789c0.277,0.139 0.584,0.211 0.894,0.211c1.717,0 7.528,0 7.528,0l4,2l0,-2l-1,0Z" style="fill:#52048e;"/><clipPath id="_clip3"><path d="M21,7c0,0 -1.236,-1.236 -2.121,-2.121c-0.563,-0.563 -1.326,-0.879 -2.122,-0.879c-1.757,0 -4.757,0 -4.757,0c0,0 -3.824,-1.912 -5.367,-2.683c-0.416,-0.209 -0.875,-0.317 -1.341,-0.317c-1.957,0 -7.292,0 -7.292,0l0,4l8,0c0,0 2.55,1.275 3.578,1.789c0.277,0.139 0.584,0.211 0.894,0.211c1.717,0 7.528,0 7.528,0l4,2l0,-2l-1,0Z"/></clipPath><g clip-path="url(#_clip3)"><path d="M1,4c0,0 3.704,0 5.292,0c0.466,0 0.925,0.108 1.341,0.317c1.128,0.564 3.367,1.683 3.367,1.683c0,0 4.197,0 6.092,0c0.592,0 1.171,0.175 1.664,0.504c0.888,0.592 2.244,1.496 2.244,1.496l-20,0l0,-4Z" style="fill:#dc6114;"/></g><path d="M0,10c0,0 0.621,0 1.172,0c0.53,0 1.039,0.211 1.414,0.586c0.59,0.59 1.414,1.414 1.414,1.414c0,0 1.243,0 2.343,0c1.061,0 2.078,0.421 2.829,1.172c1.18,1.18 2.828,2.828 2.828,2.828l-12,0l0,-6Z" style="fill:#52048e;"/><clipPath id="_clip4"><path d="M0,10c0,0 0.621,0 1.172,0c0.53,0 1.039,0.211 1.414,0.586c0.59,0.59 1.414,1.414 1.414,1.414c0,0 1.243,0 2.343,0c1.061,0 2.078,0.421 2.829,1.172c1.18,1.18 2.828,2.828 2.828,2.828l-12,0l0,-6Z"/></clipPath><g clip-path="url(#_clip4)"><path d="M9,16c0,0 -0.584,-0.584 -1.121,-1.121c-0.563,-0.563 -1.326,-0.879 -2.122,-0.879c-2.247,0 -6.757,0 -6.757,0l0,3l10,0l0,-1Z" style="fill:#dc6114;"/></g><path d="M26.828,16c-0.53,0 -1.039,0.211 -1.414,0.586c-0.59,0.59 -1.414,1.414 -1.414,1.414l7,0l0,-2c0,0 -2.751,0 -4.172,0Z" style="fill:#52048e;"/></g></g></svg>