<svg xmlns="http://www.w3.org/2000/svg" viewBox="0 0 640 640"><path fill="currentColor" d="M320 576C461.4 576 576 461.4 576 320C576 178.6 461.4 64 320 64C178.6 64 64 178.6 64 320C64 461.4 178.6 576 320 576zM422.1 399.2L238.1 447.2C225.3 450.5 212.2 442.9 208.8 430C205.4 417.1 213.1 404.1 226 400.7L410 352.7C422.8 349.4 435.9 357 439.3 369.9C442.7 382.8 435 395.8 422.1 399.2zM208 272C208 254.3 222.3 240 240 240C257.7 240 272 254.3 272 272C272 289.7 257.7 304 240 304C222.3 304 208 289.7 208 272zM400 240C417.7 240 432 254.3 432 272C432 289.7 417.7 304 400 304C382.3 304 368 289.7 368 272C368 254.3 382.3 240 400 240z"/></svg>
